<svg xmlns="http://www.w3.org/2000/svg" viewBox="0 0 14.22 14.7"><g data-name="Calque 2"><g data-name="Calque 1"><path d="m11.12.78-.35.4.6-.35 1.1 1.35-.75.6a4.66 4.66 0 0 1-3.15 2.15 17.9 17.9 0 0 1 2.1-3.75 14.1 14.1 0 0 1-5.1 2.75l-1.9.15a15 15 0 0 0 4-2.8 3.31 3.31 0 0 1 3.45-.5m-7.95 8.4h.05l.85.15v.05l-.9-.15" style="fill:#985f01;fill-rule:evenodd"/><path d="m11.37.83-.6.35.35-.4V.73c.2-.2.29-.17.25.1m-5.8 3.1a14.1 14.1 0 0 0 5.1-2.75 17.9 17.9 0 0 0-2.1 3.75 4.66 4.66 0 0 0 3.15-2.15l.75-.6.6 1.3.4 2.5.2.2.05.05-1 .75-.25-.5-.1-.3-.75.55.35.85-1.4 1.05-.25-.5v-.05l-.1-.3-.75.6.35.85-1.15.9-.3-.5A5.7 5.7 0 0 1 7.77 6l-.45-.3c-1.16-.9-1.75-1.5-1.75-1.77a4 4 0 0 1 1.9 1.65l.3.45-.3-.45a4 4 0 0 0-1.9-1.65" style="fill-rule:evenodd;fill:#784b01"/><path d="m3.67 4.08 1.9-.15c0 .27.59.87 1.75 1.8l.45.3a5.7 5.7 0 0 0 .6 3.6l.3.5-.75-.13v3.55l-1.75-.3-3-.5V9.18l.9.15v-.05l-.85-.15h-.15L3 8.23l-.38-3.05 1-1m3.3 3.95-.25-1.9V6c-1.06-1.7-2.2-1.88-3.4-.55V7.7c.3-2.6 1.24-2.88 2.8-.85l.9 1.3.35.95.4.85-.4-.85-.35-.95m-2.6 1.33v.35l1.25.25h.1l.15-1.85-.25-.05-.15 1.5-1-.2-.3-.05.3.05m1.1-1.3v-.4l-1.4-.25-.1 1.75.15-1.75 1.4.25v.4m.6 5.1c-.83-.63-1.13-1.2-.9-1.7a4.6 4.6 0 0 0 .3-1.5 4.6 4.6 0 0 1-.3 1.5c-.23.5.07 1.07.9 1.7M3 6" style="fill-rule:evenodd;fill:#835201"/><path d="M3.22 7.68V5.43C4.47 4.1 5.61 4.28 6.67 6v.25l.25 1.9L6 6.83c-1.56-2-2.5-1.75-2.8.85" style="fill-rule:evenodd;fill:#3f2701"/><path d="m5.57 8.18.25.05-.15 1.85h-.1l-1.25-.25v-.35l1 .2.15-1.5" style="fill-rule:evenodd;fill:#333"/><path d="m12.72 7 .3.9-.7.55-.05.05v-.3l-.05-.1-.2-.5-.35-.85.75-.55.1.3.25.5M9.82 9.23l-.35-.85.75-.6.1.3v.05l.25.5.2.6.1.25-.7.6-.1-.2v-.1z" style="fill-rule:evenodd;fill:#fedc76"/><path d="m8.67 10.13 1.15-.9.25.55v.1l-2.15 1.8V10l.75.1m1.9-1.5L12 7.58l.2.5-1.4 1.15-.2-.6" style="fill-rule:evenodd;fill:#4f3100"/><path d="M12.32 8.43v1.5l-4.4 3.65v-1.9l2.15-1.8.1.2.7-.6-.1-.25 1.4-1.15.05.1v.3l.05-.05" style="fill-rule:evenodd;fill:#644300"/><path d="M11.37.83c0-.27 0-.3-.25-.1v.05a3.31 3.31 0 0 0-3.45.5 15 15 0 0 1-4 2.8l1.9-.15a4 4 0 0 1 1.9 1.65l.3.45a5.7 5.7 0 0 0 .6 3.6l.3.5-.75-.13v3.55l-1.75-.3-3-.5V9.18h.05V5.43C4.47 4.1 5.61 4.28 6.67 6v.25l.25 1.9.35.95.4.85m4.8-7.75L11.37.83m1.1 1.35.6 1.3.4 2.5.2.2.05.05-1 .75m-.4 1.45v1.5l-4.4 3.65M3.07 9.13 3 8.23l-.38-3.05v0l1-1M3 8.23V6m2.6 4.1a4.6 4.6 0 0 1-.3 1.5c-.23.5.07 1.07.9 1.7m2.5-3.15 1.15-.9m.75-.6L12 7.58" style="fill:none;stroke-linecap:round;stroke-linejoin:round;stroke:#382301"/><path d="M4.37 9.48v.35l1.25.25h.1l.15-1.85-.25-.05" style="fill:none;stroke-linecap:round;stroke-linejoin:round;stroke:#333"/><path d="m5.57 8.18-.15 1.5-1-.2-.3-.05v-.15l.15-1.75 1.4.25v.4" style="fill:none;stroke-linecap:round;stroke-linejoin:round;stroke:#835201"/><path d="m12.72 7 .3.9m-1.4-1.15.75-.55.1.3.25.5M9.47 8.38l.75-.6.1.3v.05l.25.5.2.6.1.25" style="fill:none;stroke-linecap:round;stroke-linejoin:round;stroke:#ffc"/><path d="m13 7.88-.7.55-.05.05v-.3l-.05-.1-.2-.5-.35-.85m-1.8 2.5-.35-.85m.6 1.5v-.1l-.25-.55m.25.65.1.2.7-.6" style="fill:none;stroke-linecap:round;stroke-linejoin:round;stroke:#2f2300"/><path d="m9.39 11.47-.53.61-4 1-.11-.47 4.65-1.16m-3.46-2-.46.63L.84 11.4l.47-.56L5.93 9.5" style="fill-rule:evenodd;fill:#9e6401"/><path d="m1.57 12.88 2.65-2.29.22 1 4.69-1.19.27 1.08-4.66 1.15.11.47.11.46zM5 8.61l.59-.17-.26-.94 3.47.6-2.54 2.33L6 9.51l-4.69 1.33L1 9.77z" style="fill-rule:evenodd;fill:#ffcb53"/><path d="m5 13.56-.53.64L1 13.49l.53-.61zm.08-5-.18-.49.45-.61.26.94-.61.21m.89.89.26.94-.38.56-.3-.89.46-.63M1 9.77l.31 1.06-.47.56-.34-1.06z" style="fill-rule:evenodd;fill:#d88701"/><path d="m1.57 12.88 2.65-2.29.22 1 4.69-1.19.27 1.08v0l-.53.61-4 1 .11.46-.53.64-3.45-.7.53-.61m3.82-5.42-.45.61.1.54-4 1.13m4.49.39.3.89.45-.57m-.75-.32L.84 11.4.5 10.33l.5-.56M8.8 8.1l-2.54 2.33" style="fill:none;stroke-linecap:round;stroke-linejoin:round;stroke:#4d3f27;stroke-opacity:.42"/><path d="M5.37 7.5" style="fill:none;stroke-linecap:round;stroke-linejoin:round;stroke:#000;stroke-opacity:.2"/><path d="m5.38 7.47 3.42.63" style="fill:none;stroke-linecap:round;stroke-linejoin:round;stroke:#4d3f27;stroke-opacity:.41"/></g></g></svg>