<svg xmlns="http://www.w3.org/2000/svg" viewBox="0 0 77.98 67.91"><defs><style>.cls-7{fill:none;stroke-linecap:round;stroke-linejoin:round;stroke:#000}</style></defs><g id="Calque_2" data-name="Calque 2"><g id="Calque_1-2" data-name="Calque 1"><path d="m35 1.23 3.4.89-1.81-.07v.18l-.51 1.95A8.45 8.45 0 0 1 39 2.35l5.54 2.07A1.76 1.76 0 0 0 43.83 6l.74.75 3.69-.67 3.43 1.65a46 46 0 0 0-5.69-.5h-.47l-5.57.2-.96-.67c-.06-.07-.1-.08-.13 0l-.15.75v.18l-.86.17a7.74 7.74 0 0 0-4.75.11 18.4 18.4 0 0 0-6.87 3.62l-4.43 3a21 21 0 0 0-3 2 28 28 0 0 1-11.38 5.78q-2.1-.3-.1-4.1l1.34-1.4a9.5 9.5 0 0 0 2.33-1.6l1.28-1.39.1-.08a9 9 0 0 0 4.13-6.31l-.45-.15c-.33-.25-.58-.12-.76.39a25 25 0 0 1-2 3.56 6.2 6.2 0 0 0-.12-2.42L13 9l-.72-.63a44.3 44.3 0 0 1 7.08-4.77l1.22 1.67 1.83-.13 3.1-3.35 3.36.11.46 2 1.06 1.46L33.67 2h2.87A1.62 1.62 0 0 0 35 1.4z" style="fill:#b9b9b9;fill-rule:evenodd"/><path d="m19.36 3.6 3.52-1.83.1-.08 3.56-1 1.7-.16a23.4 23.4 0 0 1 6.71.7l.05.17a1.62 1.62 0 0 1 1.5.65L33.67 2l-3.28 3.36-1.06-1.46-.46-2-3.36-.11-3.1 3.35-1.83.13zm19-1.48.64.23a8.45 8.45 0 0 0-2.92 1.83l.51-1.95v-.18l1.81.07m6.18 2.3 3.73 1.65-3.69.67-.79-.74a1.76 1.76 0 0 1 .7-1.57" style="fill-rule:evenodd;fill:#e7e7e7"/><path d="m37.86 7.82-7.38 2.24-1.22.77-.32.19-3.11 2-1.32.98-2.17 1.68-1.44 1.16-5.74 5.67a51 51 0 0 0-4.35 6.11L8.79 32q-3.91 8.61-2.14 21.2-8.76-21.12-5-29.74l.07-.26 2-4 3.12-5 .69 1.06L10.11 13a28 28 0 0 0 3.16-3.66L13 9l.28-.11a6.2 6.2 0 0 1 .12 2.42 17.86 17.86 0 0 1-7.22 6.38l2.53-.8-1.34 1.4q-2 3.8.1 4.1a28 28 0 0 0 11.33-5.91 21 21 0 0 1 3-2l4.43-3a18.4 18.4 0 0 1 6.87-3.62 7.74 7.74 0 0 1 4.75-.11" style="fill-rule:evenodd;fill:#979797"/><path d="m20.9 16.84 4 4-1.11 1.95a51 51 0 0 0 10.7 14.84Q41.26 44.11 48.7 50t14.65 12.24l-.63 1-4.23 2.15-43.33-42.88zM6.77 14.2l-3.63-3.58 1.79-1.79L10.11 13l-2.65 2.26z" style="fill-rule:evenodd;fill:#5e3002"/><path d="m13 9 .31.36a28 28 0 0 1-3.2 3.64L4.93 8.83 8.81 4.9l3.43 3.45zm12 11.9 39.1 38.81a4.74 4.74 0 0 1-.75 2.53Q56.26 55.94 48.7 50T34.51 37.67a51 51 0 0 1-10.7-14.84l1.11-1.95" style="fill-rule:evenodd;fill:#a75403"/><path d="m8.67 16.87-2.53.8a17.86 17.86 0 0 0 7.22-6.38 25 25 0 0 0 2-3.56c.18-.51.43-.64.76-.39l.45.15a9 9 0 0 1-4.13 6.31l-.1.08L11 15.27a9.5 9.5 0 0 1-2.37 1.6" style="fill-rule:evenodd;fill:#cbcbcb"/><path d="m39.94 7.47 5.57-.2h.47a46 46 0 0 1 5.71.49l-3.43-1.69-3.73-1.65L39 2.35l-.64-.23L35 1.23a23.4 23.4 0 0 0-6.71-.7l-1.7.16-3.59 1-.1.08-3.54 1.83m9.9 7.23 1.22-.77 7.38-2.24.86-.17M19.36 3.6a44.3 44.3 0 0 0-7.12 4.75L13 9m0 0 .31.36a28 28 0 0 1-3.2 3.64l-2.65 2.26-.69-1.06-3.12 5-2 4-.07.26q-3.72 8.61 5 29.74Q4.88 40.6 8.79 32l2-3.39a51 51 0 0 1 4.35-6.11l5.74-5.67 1.44-1.18L24.51 14l1.32-.92 3.11-2M15.16 22.51l43.33 42.9 4.23-2.15.63-1M6.77 14.2l-3.63-3.58 1.79-1.79L8.81 4.9l3.43 3.45m51.11 53.89a4.74 4.74 0 0 0 .75-2.53L24.92 20.88l-4-4" class="cls-7"/><path d="M38.72 7.65v-.18l.15-.75H39l.91.71" style="fill:none;stroke-linecap:round;stroke-linejoin:round;stroke:#a75403"/><path d="m66.68 20.51 7.95-8.8h2.85l-8.3 8.8zm-47.5 46.9q-5.7-1.59-5.55-6.9l-.05-.35.15-1.16 5.75-5.8 2.05 1.1-5.4 5q-.6 5.2 3.05 8m19.35-33.7 10.65-11 1.7-10.3L59.63 2h3.1l-9 10.1-2.15 11.6-10.6 11-2.4-.95m14.25-7.4a4.2 4.2 0 0 1 1.25-2A4.63 4.63 0 0 1 56.23 23a2 2 0 0 1 1.85.5 1.87 1.87 0 0 1 .4 1.75 5.2 5.2 0 0 1-1.25 2.2A4.67 4.67 0 0 1 55 28.56a2 2 0 0 1-1.85-.35 2.05 2.05 0 0 1-.4-1.9" style="fill-rule:evenodd;fill:#999"/><path d="m77.48 11.71-1.6 10.55-8.75 8.25H57L45.83 41.86l-4.9-7.2 10.6-11 2.15-11.6 9-10.1 8.15 1.7-9.45 9.65v7.2h7.75l8.3-8.8m-50.8 49.6-5.05 5.1-2.4 1q-3.64-2.85-3.05-8l5.4-5 5.1 7m26.15-35a2.05 2.05 0 0 0 .4 1.9 2 2 0 0 0 1.85.35 4.67 4.67 0 0 0 2.15-1.2 5.2 5.2 0 0 0 1.25-2.2 1.87 1.87 0 0 0-.4-1.75 2 2 0 0 0-1.85-.5A4.63 4.63 0 0 0 54 24.26a4.2 4.2 0 0 0-1.25 2" style="fill-rule:evenodd;fill:#666"/><path d="m45.83 41.86-.55.6-5.35-6.7-6.3 6.45-2.05-1.45 2.05 1.45 4 8-5-7-3.4 3.3-1.7 1.35 1.7 3 4.6 3-5.35-2.2-2.1-2.6-4.9 5.2-2.05-1.1 5.2-5.35 3.45-3.55 3.45-3.55 7-7 2.4.95zm-17.7 2.45 1.15 2.2zm-3.45 3.55" style="fill-rule:evenodd;fill:#ff9224"/><path d="m45.28 42.46-7.65 7.75-11 11.1-5.1-7 4.9-5.2 2.1 2.6 5.35 2.2-4.6-3-1.7-3 1.7-1.35 3.4-3.3 5 7-4-8 6.3-6.45 5.35 6.7" style="fill-rule:evenodd;fill:#c60"/><path d="m66.68 20.51 7.95-8.8h2.85l-1.6 10.55-8.75 8.25H57L45.83 41.86l-.55.6-7.65 7.75-11 11.1-5.05 5.1-2.4 1q-5.7-1.59-5.55-6.9l-.05-.35.15-1.16 5.75-5.8 5.2-5.35 3.45-3.55 3.45-3.55 7-7 10.65-11 1.7-10.3L59.63 2h3.1l8.15 1.7-9.45 9.65v7.2h5.25M38.53 33.71l2.4.95 4.9 7.2m-14.25-1.1 2.05 1.45 4 8m-8.35-3.7v4.35l4.6 3m-12.35.4 5.1 7m2.65-14.8-1.15-2.2m1.15 6.55-1.7-3h-2.9m-5.2 5.35 2.05 1.1" class="cls-7"/><path d="M52.78 26.31a4.2 4.2 0 0 1 1.25-2 4.63 4.63 0 0 1 2.15-1.35 2 2 0 0 1 1.85.5 1.87 1.87 0 0 1 .4 1.75 5.2 5.2 0 0 1-1.25 2.2A4.67 4.67 0 0 1 55 28.56a2 2 0 0 1-1.85-.35 2.05 2.05 0 0 1-.37-1.9" class="cls-7"/></g></g></svg>